HIERARCHY
ROOT Hips
{
	OFFSET 0.000000 0.000000 0.000000
	CHANNELS 6 Xposition Yposition Zposition Zrotation Yrotation Xrotation 
	JOINT LHipJoint
	{
		OFFSET 0.000000 0.000000 0.000000
		CHANNELS 3 Zrotation Yrotation Xrotation
		JOINT LeftUpLeg
		{
			OFFSET 1.363060 -1.794630 0.839290
			CHANNELS 3 Zrotation Yrotation Xrotation
			JOINT LeftLeg
			{
				OFFSET 2.448110 -6.726130 0.000000
				CHANNELS 3 Zrotation Yrotation Xrotation
				JOINT LeftFoot
				{
					OFFSET 2.562200 -7.039590 0.000000
					CHANNELS 3 Zrotation Yrotation Xrotation
					JOINT LeftToeBase
					{
						OFFSET 0.157640 -0.433110 2.322550
						CHANNELS 3 Zrotation Yrotation Xrotation
						End Site
						{
							OFFSET 0.000000 0.000000 0.000000
						}
					}
				}
			}
		}
	}
	JOINT RHipJoint
	{
		OFFSET 0.000000 0.000000 0.000000
		CHANNELS 3 Zrotation Yrotation Xrotation
		JOINT RightUpLeg
		{
			OFFSET -1.305520 -1.794630 0.839290
			CHANNELS 3 Zrotation Yrotation Xrotation
			JOINT RightLeg
			{
				OFFSET -2.542530 -6.985550 0.000000
				CHANNELS 3 Zrotation Yrotation Xrotation
				JOINT RightFoot
				{
					OFFSET -2.568260 -7.056230 0.000000
					CHANNELS 3 Zrotation Yrotation Xrotation
					JOINT RightToeBase
					{
						OFFSET -0.164730 -0.452590 2.363150
						CHANNELS 3 Zrotation Yrotation Xrotation
						End Site
						{
							OFFSET 0.000000 0.000000 0.000000
						}
					}
				}
			}
		}
	}
	JOINT LowerBack
	{
		OFFSET 0.000000 0.000000 0.000000
		CHANNELS 3 Zrotation Yrotation Xrotation
		JOINT Spine
		{
			OFFSET 0.028270 2.035590 -0.193380
			CHANNELS 3 Zrotation Yrotation Xrotation
			JOINT Spine1
			{
				OFFSET 0.056720 2.048850 -0.042750
				CHANNELS 3 Zrotation Yrotation Xrotation
				JOINT Neck
				{
					OFFSET 0.000000 0.000000 0.000000
					CHANNELS 3 Zrotation Yrotation Xrotation
					JOINT Neck1
					{
						OFFSET -0.054170 1.746240 0.172020
						CHANNELS 3 Zrotation Yrotation Xrotation
						JOINT Head
						{
							OFFSET 0.104070 1.761360 -0.123970
							CHANNELS 3 Zrotation Yrotation Xrotation
							End Site
							{
								OFFSET 0.000000 0.000000 0.000000
							}
						}
					}
				}
				JOINT LeftShoulder
				{
					OFFSET 0.000000 0.000000 0.000000
					CHANNELS 3 Zrotation Yrotation Xrotation
					JOINT LeftArm
					{
						OFFSET 3.362410 1.200890 -0.311210
						CHANNELS 3 Zrotation Yrotation Xrotation
						JOINT LeftForeArm
						{
							OFFSET 4.983000 -0.000000 -0.000000
							CHANNELS 3 Zrotation Yrotation Xrotation
							JOINT LeftHand
							{
								OFFSET 3.483560 -0.000000 -0.000000
								CHANNELS 3 Zrotation Yrotation Xrotation
								JOINT LeftFingerBase
								{
									OFFSET 0.000000 0.000000 0.000000
									CHANNELS 3 Zrotation Yrotation Xrotation
									JOINT LeftHandIndex1
									{
										OFFSET 0.715260 -0.000000 -0.000000
										CHANNELS 3 Zrotation Yrotation Xrotation
										End Site
										{
											OFFSET 0.000000 0.000000 0.000000
										}
									}
								}
								JOINT LThumb
								{
									OFFSET 0.000000 0.000000 0.000000
									CHANNELS 3 Zrotation Yrotation Xrotation
									End Site
									{
										OFFSET 0.000000 0.000000 0.000000
									}
								}
							}
						}
					}
				}
				JOINT RightShoulder
				{
					OFFSET 0.000000 0.000000 0.000000
					CHANNELS 3 Zrotation Yrotation Xrotation
					JOINT RightArm
					{
						OFFSET -3.136600 1.374050 -0.404650
						CHANNELS 3 Zrotation Yrotation Xrotation
						JOINT RightForeArm
						{
							OFFSET -5.241900 -0.000000 -0.000000
							CHANNELS 3 Zrotation Yrotation Xrotation
							JOINT RightHand
							{
								OFFSET -3.444170 -0.000000 -0.000000
								CHANNELS 3 Zrotation Yrotation Xrotation
								JOINT RightFingerBase
								{
									OFFSET 0.000000 0.000000 0.000000
									CHANNELS 3 Zrotation Yrotation Xrotation
									JOINT RightHandIndex1
									{
										OFFSET -0.622530 -0.000000 -0.000000
										CHANNELS 3 Zrotation Yrotation Xrotation
										End Site
										{
											OFFSET 0.000000 0.000000 0.000000
										}
									}
								}
								JOINT RThumb
								{
									OFFSET 0.000000 0.000000 0.000000
									CHANNELS 3 Zrotation Yrotation Xrotation
									End Site
									{
										OFFSET 0.000000 0.000000 0.000000
									}
								}
							}
						}
					}
				}
			}
		}
	}
}
MOTION
Frames: 8
Frame Time: 0.008333
1.245462 17.148298 1.075965 6.569046 -48.345124 13.199202 -7.677721 1.274417 6.109192 -12.251660 -22.602815 -19.701139 -2.769979 -0.871452 9.560791 0.286710 0.207576 -5.787000 0.093700 0.000000 -30.932200 10.659093 0.498764 5.309195 4.012637 24.476884 -31.334004 -2.535759 -2.767465 60.866948 -5.978121 -34.761817 10.390138 -12.608901 0.000000 -65.400100 -7.928297 -3.725678 -8.558381 -2.455569 -3.196816 -4.021380 -8.786167 -3.073898 0.729990 15.534712 -14.957515 -5.500551 -2.072590 -0.190764 0.619778 0.000000 0.000000 0.000000 3.223250 3.407883 0.522728 -62.780938 -1.995498 6.251374 -1.257780 -64.237831 -0.034096 13.660985 -4.978859 -0.629522 -0.172641 0.228261 -0.000000 0.000000 0.000000 0.000000 0.000000 0.000000 0.000000 7.092383 -11.645944 -3.534651 83.145114 13.694379 18.467554 -179.297252 64.054095 179.860264 -12.825040 14.268169 -1.752164 0.240781 -0.962964 0.000000 0.000000 0.000000 0.000000 0.000000 0.000000 0.000000 
1.246293 17.152260 1.088956 6.169423 -47.276316 13.438578 -7.653595 1.226226 6.188869 -11.807988 -23.423700 -19.624682 -2.717667 -0.827968 9.846120 0.281937 0.161240 -5.814601 0.088900 -0.000000 -31.142200 10.736459 0.558658 5.096890 4.566924 23.873180 -32.012817 -2.562590 -2.852021 62.659602 -5.740678 -33.764771 12.861315 -13.338300 0.000001 -66.518199 -7.937704 -3.738537 -8.366903 -2.465665 -3.206037 -3.988522 -8.830635 -3.077430 0.692897 15.680647 -15.035985 -5.499058 -2.067500 -0.190085 0.616319 0.000000 0.000000 0.000000 3.372041 3.229309 0.487910 -62.758335 -2.316349 6.349406 -1.227493 -64.655483 -0.035662 13.703209 -4.904150 -0.623198 -0.174665 0.234173 -0.000000 0.000000 0.000000 0.000000 0.000000 0.000000 0.000000 7.165060 -11.723394 -3.490753 83.187842 13.289728 18.226361 -179.289696 63.983160 179.859777 -12.860647 14.306218 -1.761450 0.240562 -0.963352 0.000000 0.000000 0.000000 0.000000 0.000000 0.000000 0.000000 
1.247691 17.157465 1.102125 5.733839 -46.244407 13.706003 -7.638159 1.174633 6.284516 -11.293387 -24.293260 -19.566136 -2.654061 -0.786852 10.122198 0.289502 0.198393 -5.860904 0.086200 0.000000 -31.315301 10.805195 0.614207 4.874981 5.181980 23.199761 -32.782893 -2.585530 -2.939918 64.516125 -5.496281 -32.573084 15.308328 -13.848500 -0.000000 -67.325300 -7.917186 -3.738071 -8.193351 -2.471154 -3.205235 -3.958964 -8.875320 -3.070856 0.659424 15.831707 -15.109511 -5.493748 -2.062541 -0.189479 0.613893 0.000000 0.000000 0.000000 3.518498 3.069759 0.450678 -62.740630 -2.686279 6.465043 -1.199846 -65.020345 -0.037199 13.743121 -4.828154 -0.616472 -0.176805 0.239972 -0.000000 0.000000 0.000000 0.000000 0.000000 0.000000 0.000000 7.242853 -11.792688 -3.448691 83.209036 12.888937 17.990131 -179.284912 63.910254 179.859430 -12.888111 14.340641 -1.769238 0.240307 -0.963557 0.000000 0.000000 0.000000 0.000000 0.000000 0.000000 0.000000 
1.249667 17.163701 1.115414 5.263330 -45.250679 14.003335 -7.632620 1.121294 6.394220 -10.710134 -25.189497 -19.537145 -2.581100 -0.747830 10.393482 0.306215 0.297053 -5.923413 0.084800 0.000000 -31.473999 10.865792 0.664429 4.647049 5.854228 22.465541 -33.658242 -2.607992 -3.034358 66.452112 -5.248744 -31.187668 17.654952 -14.099300 -0.000000 -67.786600 -7.867365 -3.724608 -8.041054 -2.472205 -3.194640 -3.934311 -8.920509 -3.054652 0.625617 15.987479 -15.176174 -5.482253 -2.057560 -0.188980 0.613243 0.000000 0.000000 0.000000 3.664306 2.910476 0.411409 -62.726543 -3.080491 6.588597 -1.173355 -65.354208 -0.038716 13.776724 -4.748341 -0.608946 -0.178958 0.245685 -0.000000 0.000000 0.000000 0.000000 0.000000 0.000000 0.000000 7.321505 -11.850935 -3.406425 83.209643 12.486890 17.757001 -179.282394 63.832603 179.859208 -12.906881 14.369120 -1.775025 0.239975 -0.963597 0.000000 0.000000 0.000000 0.000000 0.000000 0.000000 0.000000 
1.252160 17.170741 1.128614 4.764708 -44.297603 14.326394 -7.636307 1.067564 6.516684 -10.063921 -26.101553 -19.541457 -2.500412 -0.710954 10.658808 0.330622 0.447718 -5.998949 0.084300 -0.000000 -31.620500 10.919862 0.708929 4.414862 6.576116 21.679627 -34.648040 -2.635141 -3.139132 68.483729 -5.000886 -29.613881 19.817675 -14.063199 0.000000 -67.839000 -7.793610 -3.699295 -7.910075 -2.469691 -3.174813 -3.913801 -8.966162 -3.029260 0.594468 16.149736 -15.235640 -5.468913 -2.051306 -0.188421 0.613094 0.000000 0.000000 0.000000 3.814242 2.772001 0.370402 -62.716361 -3.527069 6.739888 -1.148659 -65.648460 -0.040229 13.805567 -4.664290 -0.600720 -0.181275 0.251435 -0.000000 0.000000 0.000000 0.000000 0.000000 0.000000 0.000000 7.398480 -11.897027 -3.365175 83.193141 12.084477 17.526622 -179.281149 63.745306 179.859089 -12.916881 14.389137 -1.778712 0.239537 -0.963483 0.000000 0.000000 0.000000 0.000000 0.000000 0.000000 0.000000 
1.255234 17.178392 1.141642 4.239456 -43.383788 14.675018 -7.650479 1.014697 6.647470 -9.360282 -27.003980 -19.589673 -2.413881 -0.675060 10.931814 0.359320 0.625619 -6.086860 0.083600 0.000000 -31.776400 10.967386 0.748149 4.182265 7.342675 20.861490 -35.755813 -2.672056 -3.256500 70.614562 -4.757346 -27.890290 21.748218 -13.758801 0.000000 -67.623400 -7.696243 -3.663222 -7.799921 -2.463590 -3.146764 -3.898401 -9.012212 -2.995927 0.561388 16.316871 -15.286200 -5.451291 -2.043683 -0.187839 0.614183 0.000000 0.000000 0.000000 3.970399 2.632879 0.328319 -62.708979 -3.999861 6.907116 -1.124152 -65.927286 -0.041757 13.825870 -4.573851 -0.591293 -0.183635 0.257269 -0.000000 0.000000 0.000000 0.000000 0.000000 0.000000 0.000000 7.468852 -11.928641 -3.322568 83.161615 11.678238 17.297683 -179.280651 63.647703 179.859048 -12.918452 14.399074 -1.779999 0.238952 -0.963234 0.000000 0.000000 0.000000 0.000000 0.000000 0.000000 0.000000 
1.258745 17.186441 1.154277 3.696269 -42.509496 15.043995 -7.674664 0.963477 6.782947 -8.607656 -27.883349 -19.683911 -2.323050 -0.639595 11.218898 0.390744 0.819657 -6.186125 0.082399 0.000000 -31.945200 11.009350 0.782897 3.951461 8.144131 20.030846 -36.979966 -2.724813 -3.388815 72.850074 -4.520148 -26.048986 23.396710 -13.208400 -0.000000 -67.201200 -7.579394 -3.617766 -7.707290 -2.454395 -3.111416 -3.886886 -9.057996 -2.955472 0.528501 16.489196 -15.328643 -5.433185 -2.033667 -0.187090 0.615379 0.000000 0.000000 0.000000 4.136368 2.507686 0.285614 -62.705312 -4.519549 7.104495 -1.100190 -66.186889 -0.043313 13.839217 -4.477908 -0.580864 -0.186154 0.263304 0.000000 0.000000 0.000000 0.000000 0.000000 0.000000 0.000000 7.530087 -11.946316 -3.279062 83.118328 11.271016 17.070888 -179.280451 63.538552 179.859062 -12.912389 14.398698 -1.778884 0.238223 -0.962882 0.000000 0.000000 0.000000 0.000000 0.000000 0.000000 0.000000 
1.263048 17.194740 1.166384 3.132937 -41.673155 15.431415 -7.710189 0.913816 6.917231 -7.813428 -28.718507 -19.828198 -2.229091 -0.603213 11.534917 0.422454 1.011601 -6.298179 0.079700 0.000000 -32.139200 11.044752 0.814856 3.725855 8.972601 19.215211 -38.314066 -2.798178 -3.536924 75.185726 -4.291848 -24.140745 24.750216 -12.463900 0.000000 -66.759700 -7.442428 -3.563995 -7.627863 -2.441860 -3.069878 -3.878818 -9.103684 -2.909026 0.493738 16.665531 -15.362679 -5.414334 -2.021075 -0.186162 0.616742 0.000000 0.000000 0.000000 4.314189 2.389108 0.242724 -62.705984 -5.079662 7.328741 -1.075971 -66.439554 -0.044921 13.844752 -4.377470 -0.569534 -0.188788 0.269630 0.000000 0.000000 0.000000 0.000000 0.000000 0.000000 0.000000 7.578727 -11.949507 -3.233675 83.066191 10.864882 16.846419 -179.280098 63.416074 179.859099 -12.899606 14.388230 -1.775772 0.237332 -0.962508 0.000000 0.000000 0.000000 0.000000 0.000000 0.000000 0.000000 
